<svg id="svg" version="1.1" xmlns="http://www.w3.org/2000/svg" xmlns:xlink="http://www.w3.org/1999/xlink" width="400" height="400" viewBox="0, 0, 400,400"><g id="svgg"><path id="path0" d="M181.600 6.640 C 180.500 6.998,177.311 7.317,173.400 7.460 C 164.882 7.772,164.735 7.903,166.155 13.868 C 166.461 15.150,166.935 18.000,167.209 20.200 C 167.878 25.562,168.245 26.228,170.680 26.493 C 174.055 26.862,189.523 25.837,190.157 25.203 C 190.816 24.544,190.237 11.393,189.361 7.100 C 189.094 5.790,184.962 5.545,181.600 6.640 M200.556 7.492 C 200.260 9.073,201.095 47.651,201.539 52.867 C 201.861 56.647,201.834 56.622,205.336 56.502 C 206.911 56.447,209.100 56.584,210.200 56.806 C 212.478 57.265,222.111 58.020,222.373 57.760 C 222.467 57.665,222.598 54.036,222.663 49.694 C 222.728 45.352,223.050 39.460,223.378 36.600 C 223.951 31.607,225.032 8.099,224.704 7.771 C 224.617 7.683,221.947 7.435,218.773 7.219 C 215.598 7.003,212.280 6.645,211.400 6.423 C 210.520 6.201,207.783 6.015,205.318 6.010 L 200.836 6.000 200.556 7.492 M149.200 10.648 C 145.052 11.679,136.600 14.480,134.741 15.440 C 133.719 15.968,132.540 16.400,132.121 16.400 C 130.706 16.400,129.617 19.069,130.747 19.768 C 130.939 19.886,131.208 20.692,131.347 21.560 C 131.687 23.685,134.216 31.059,135.031 32.304 C 135.787 33.457,141.893 33.359,144.786 32.147 C 145.564 31.821,147.370 31.446,148.800 31.314 C 151.614 31.055,156.331 29.534,156.879 28.710 C 157.382 27.954,157.034 22.233,156.276 18.800 C 155.911 17.150,155.401 14.810,155.141 13.600 C 154.344 9.893,153.642 9.544,149.200 10.648 M236.045 10.859 C 235.838 11.377,235.457 16.660,235.198 22.600 C 234.939 28.540,234.563 34.300,234.364 35.400 C 234.164 36.500,233.885 42.272,233.742 48.226 L 233.484 59.052 234.965 59.926 C 235.779 60.407,237.068 60.800,237.830 60.800 C 238.591 60.800,241.295 61.250,243.839 61.800 C 246.383 62.350,249.677 62.800,251.160 62.800 L 253.856 62.800 254.339 58.645 C 255.051 52.523,255.527 45.110,255.977 33.156 C 256.197 27.302,256.562 22.025,256.789 21.430 C 258.219 17.668,257.065 14.665,254.042 14.283 C 253.076 14.161,252.163 13.864,252.014 13.623 C 251.865 13.382,250.586 12.998,249.172 12.769 C 247.757 12.540,246.150 12.159,245.600 11.923 C 244.509 11.454,240.281 10.469,237.910 10.131 C 236.619 9.946,236.370 10.043,236.045 10.859 M180.400 35.620 C 177.210 35.783,174.150 36.093,173.600 36.309 C 173.050 36.525,170.620 36.919,168.200 37.185 C 165.780 37.451,162.420 38.013,160.733 38.434 C 159.047 38.855,156.991 39.200,156.166 39.200 C 154.797 39.200,151.543 39.878,142.587 42.028 C 140.820 42.453,138.963 42.800,138.461 42.800 C 137.958 42.800,137.211 42.980,136.799 43.200 C 135.872 43.696,127.644 45.803,125.200 46.170 C 122.875 46.519,117.546 48.026,116.900 48.518 C 116.136 49.098,116.213 61.658,116.996 64.236 C 117.324 65.316,117.780 67.730,118.009 69.600 C 118.238 71.470,118.675 73.810,118.979 74.800 C 119.283 75.790,119.641 77.533,119.776 78.674 C 119.911 79.815,120.285 81.255,120.608 81.874 C 120.931 82.493,121.196 83.481,121.198 84.069 C 121.199 84.657,121.650 85.673,122.200 86.327 C 122.750 86.981,123.200 87.960,123.200 88.504 C 123.200 89.047,123.535 89.921,123.945 90.446 C 124.355 90.971,124.825 91.850,124.991 92.400 C 125.156 92.950,125.598 93.760,125.972 94.200 C 126.346 94.640,126.985 95.540,127.392 96.200 C 128.344 97.746,132.258 102.280,133.769 103.588 C 135.864 105.401,141.182 108.359,142.400 108.390 C 142.730 108.398,143.486 108.659,144.080 108.969 C 144.674 109.278,146.384 109.660,147.880 109.816 C 153.749 110.430,153.381 108.828,153.298 133.400 C 153.259 144.871,153.405 155.463,153.632 157.600 C 153.853 159.690,154.074 161.972,154.123 162.672 C 154.251 164.532,153.437 164.447,170.856 164.419 C 189.586 164.390,192.474 164.558,193.870 165.759 L 194.846 166.600 195.014 211.200 C 195.194 258.907,195.237 262.167,195.700 262.632 C 195.865 262.798,196.000 262.753,196.000 262.533 C 196.000 262.313,196.732 261.340,197.626 260.371 C 198.521 259.403,199.514 258.059,199.833 257.387 C 200.152 256.714,200.951 255.575,201.607 254.857 C 202.263 254.138,202.800 253.395,202.800 253.204 C 202.800 253.013,203.036 252.619,203.324 252.329 C 203.612 252.038,204.687 250.540,205.713 249.000 C 206.739 247.460,208.081 245.480,208.694 244.600 C 209.307 243.720,210.034 242.550,210.308 242.000 C 210.583 241.450,211.391 240.251,212.104 239.335 C 212.817 238.419,213.850 236.901,214.400 235.960 C 214.950 235.020,215.680 233.959,216.022 233.603 C 216.364 233.247,217.318 231.751,218.141 230.278 C 218.965 228.805,219.798 227.600,219.993 227.600 C 220.187 227.600,220.474 227.197,220.631 226.703 C 220.787 226.210,221.589 224.995,222.413 224.003 C 223.237 223.012,224.027 221.817,224.167 221.349 C 224.308 220.881,224.867 219.981,225.411 219.349 C 225.954 218.717,226.399 217.919,226.400 217.575 C 226.400 217.231,226.956 216.421,227.636 215.775 C 228.315 215.129,229.152 214.060,229.496 213.400 C 229.839 212.740,230.678 211.444,231.360 210.520 C 232.042 209.596,233.050 208.086,233.600 207.163 C 234.150 206.241,234.781 205.287,235.003 205.043 C 235.225 204.799,236.428 203.070,237.677 201.200 C 241.198 195.927,244.039 191.881,244.856 190.974 C 245.265 190.520,245.600 189.918,245.600 189.637 C 245.600 189.115,247.880 185.902,249.500 184.142 C 249.995 183.604,250.400 183.057,250.400 182.927 C 250.400 182.483,254.113 176.400,254.383 176.400 C 254.532 176.400,255.057 175.680,255.552 174.800 C 256.047 173.920,256.616 173.200,256.818 173.200 C 257.020 173.200,257.293 172.767,257.426 172.238 C 257.559 171.709,258.102 170.867,258.634 170.368 C 259.165 169.869,259.600 169.235,259.600 168.959 C 259.600 168.683,259.834 168.219,260.119 167.929 C 260.844 167.191,262.853 164.089,263.750 162.323 C 264.163 161.511,264.742 160.754,265.038 160.641 C 265.333 160.528,265.857 159.758,266.203 158.931 C 266.548 158.105,266.968 157.332,267.136 157.214 C 267.567 156.912,270.000 153.221,270.000 152.869 C 270.000 152.709,270.349 152.279,270.775 151.915 C 271.447 151.339,272.978 149.115,275.812 144.600 C 277.248 142.311,278.491 139.557,278.213 139.279 C 278.059 139.126,267.688 138.961,255.167 138.914 C 231.403 138.824,230.796 138.779,230.804 137.086 C 230.810 135.988,231.865 132.445,232.366 131.840 C 232.746 131.384,233.734 128.840,234.448 126.483 C 234.667 125.759,235.286 124.519,235.823 123.727 C 236.361 122.936,236.800 122.079,236.800 121.824 C 236.800 121.569,237.002 121.158,237.248 120.912 C 237.674 120.486,239.154 117.190,240.083 114.600 C 240.320 113.940,240.757 113.117,241.054 112.771 C 241.352 112.425,241.853 111.345,242.167 110.371 C 242.482 109.397,243.579 106.440,244.605 103.800 C 245.632 101.160,246.694 98.010,246.967 96.800 C 247.239 95.590,247.652 94.240,247.885 93.800 C 248.117 93.360,248.438 92.010,248.598 90.800 C 248.757 89.590,249.212 87.610,249.609 86.400 C 250.006 85.190,250.450 82.408,250.596 80.217 C 250.741 78.027,251.028 75.922,251.232 75.540 C 251.779 74.518,250.869 72.825,249.631 72.560 C 249.064 72.439,247.610 72.005,246.400 71.595 C 245.190 71.186,242.981 70.653,241.491 70.412 C 240.001 70.171,238.302 69.791,237.715 69.568 C 237.127 69.344,234.656 68.984,232.223 68.767 C 229.791 68.550,226.450 68.109,224.800 67.787 C 220.148 66.877,202.586 66.006,197.383 66.426 C 194.972 66.621,190.200 66.959,186.778 67.176 C 181.142 67.535,174.009 68.571,169.800 69.643 C 168.920 69.867,167.390 70.229,166.400 70.448 C 165.410 70.667,163.700 71.100,162.600 71.410 C 151.873 74.440,150.120 74.371,148.788 70.865 C 147.057 66.310,148.677 64.620,156.200 63.132 C 157.300 62.914,159.370 62.398,160.800 61.984 C 162.230 61.570,164.480 61.119,165.800 60.982 C 167.120 60.845,168.920 60.491,169.800 60.195 C 170.680 59.899,172.480 59.552,173.800 59.425 C 175.120 59.297,179.440 58.777,183.400 58.268 L 190.600 57.343 190.676 55.172 C 190.718 53.977,190.750 50.120,190.748 46.600 C 190.746 43.080,190.762 39.224,190.784 38.031 C 190.842 34.894,191.528 35.053,180.400 35.620 " stroke="none" fill="#e25d2c" fill-rule="evenodd"></path><path id="path1" d="M169.234 299.894 C 161.089 299.973,156.891 300.158,156.534 300.455 C 155.905 300.977,155.738 385.367,156.364 386.355 C 156.889 387.184,181.388 387.357,182.700 386.541 L 183.600 385.982 183.600 363.335 C 183.600 342.299,183.649 340.652,184.294 340.180 C 185.224 339.501,185.997 339.968,187.429 342.076 C 188.073 343.024,188.780 343.994,189.000 344.232 C 189.220 344.469,190.750 346.513,192.400 348.774 C 194.050 351.035,196.840 354.751,198.600 357.031 C 200.360 359.312,202.250 361.827,202.800 362.619 C 203.350 363.412,204.430 364.826,205.200 365.761 C 205.970 366.696,207.950 369.218,209.600 371.364 C 212.769 375.486,216.113 379.797,216.920 380.800 C 217.185 381.130,218.061 382.303,218.867 383.407 C 221.582 387.127,220.245 386.830,235.150 387.017 C 247.862 387.176,248.397 387.153,248.790 386.418 C 249.556 384.987,249.337 300.538,248.567 300.243 C 247.609 299.875,223.076 299.964,222.488 300.337 C 222.083 300.594,221.957 305.405,221.888 323.270 C 221.796 346.810,221.768 347.200,220.154 347.200 C 219.852 347.200,219.060 346.435,218.393 345.500 C 216.798 343.262,216.272 342.578,212.226 337.492 C 210.342 335.123,208.800 333.093,208.800 332.981 C 208.800 332.784,204.970 327.717,202.437 324.562 C 202.243 324.322,201.803 323.579,201.457 322.911 C 201.112 322.243,200.553 321.591,200.215 321.461 C 199.877 321.331,199.600 321.010,199.600 320.746 C 199.600 320.483,199.330 319.982,198.999 319.634 C 197.887 318.460,193.496 313.009,192.850 312.000 C 192.498 311.450,192.028 310.792,191.805 310.538 C 191.582 310.284,190.140 308.418,188.600 306.391 C 184.682 301.234,183.547 300.047,182.400 299.902 C 181.850 299.833,175.925 299.829,169.234 299.894 M64.111 300.706 C 52.511 300.807,52.005 300.844,51.596 301.607 C 51.303 302.156,51.215 311.496,51.313 331.701 L 51.455 361.000 52.464 364.000 C 53.520 367.141,54.617 369.893,55.110 370.640 C 57.099 373.656,57.905 374.679,59.885 376.700 C 64.018 380.918,71.343 385.590,73.836 385.597 C 74.296 385.599,75.556 385.875,76.636 386.211 C 83.818 388.446,111.749 388.664,115.800 386.517 C 116.240 386.284,117.387 385.963,118.348 385.803 C 126.908 384.384,136.856 374.759,140.469 364.400 C 142.326 359.075,143.581 303.768,141.897 301.465 C 141.271 300.609,141.884 300.639,126.908 300.727 L 114.415 300.800 114.198 301.700 C 114.079 302.195,113.940 314.840,113.888 329.800 L 113.795 357.000 112.832 359.720 C 108.923 370.761,88.646 372.641,81.763 362.600 C 79.168 358.815,79.200 359.228,79.200 329.335 C 79.200 308.192,79.089 302.013,78.700 301.523 C 77.982 300.618,77.463 300.589,64.111 300.706 M268.471 301.366 C 268.102 301.567,267.680 301.913,267.534 302.135 C 266.929 303.050,267.135 387.048,267.743 387.553 C 268.440 388.131,348.750 388.210,349.327 387.633 C 350.017 386.943,349.722 370.751,349.006 370.035 C 348.437 369.466,345.823 369.413,323.886 369.521 C 300.936 369.635,299.312 369.597,298.000 368.921 L 296.600 368.200 296.604 360.065 C 296.607 352.490,296.661 351.891,297.380 351.365 C 298.024 350.894,301.909 350.800,320.703 350.800 C 335.482 350.800,343.519 350.657,344.026 350.386 C 345.089 349.817,345.220 336.377,344.177 334.889 L 343.555 334.000 321.277 333.995 C 309.025 333.992,298.596 333.881,298.103 333.749 C 296.049 333.198,295.600 320.328,297.600 319.317 C 298.372 318.927,304.123 318.810,322.871 318.806 C 344.398 318.801,347.214 318.729,347.771 318.171 C 348.791 317.152,348.698 302.794,347.666 301.860 C 346.826 301.100,269.841 300.620,268.471 301.366 " stroke="none" fill="#0c2677" fill-rule="evenodd"></path><path id="path2" d="M0.000 200.000 L 0.000 400.000 200.000 400.000 L 400.000 400.000 400.000 200.000 L 400.000 0.000 200.000 0.000 L 0.000 0.000 0.000 200.000 M190.856 4.764 C 191.889 5.601,191.993 6.470,192.634 19.664 L 192.919 25.528 191.821 26.545 C 190.547 27.726,190.110 27.796,180.000 28.424 C 166.003 29.293,166.436 29.510,165.215 21.000 C 164.773 17.920,164.229 14.399,164.006 13.176 C 163.012 7.729,163.491 6.754,167.356 6.360 C 169.606 6.130,176.565 5.302,183.400 4.451 C 188.183 3.855,189.817 3.924,190.856 4.764 M209.600 4.413 C 212.790 4.647,217.517 4.990,220.105 5.176 C 223.437 5.415,225.117 5.716,225.865 6.206 L 226.920 6.897 226.644 15.749 C 226.492 20.617,226.191 26.760,225.976 29.400 C 225.760 32.040,225.410 36.270,225.198 38.800 C 224.986 41.330,224.810 46.697,224.806 50.726 C 224.798 60.375,224.929 60.199,218.200 59.555 C 216.220 59.365,211.565 59.046,207.855 58.846 C 202.486 58.556,200.977 58.348,200.455 57.827 C 199.760 57.133,199.602 52.871,199.045 19.974 C 198.928 13.029,198.728 7.078,198.601 6.748 C 198.472 6.410,198.806 5.679,199.366 5.074 C 200.535 3.814,200.992 3.784,209.600 4.413 M242.800 9.220 C 243.790 9.615,245.320 10.057,246.200 10.202 C 247.080 10.347,248.340 10.705,249.000 10.997 C 249.660 11.289,251.190 11.646,252.400 11.790 C 254.859 12.084,257.520 13.131,258.344 14.129 C 259.200 15.165,258.937 21.973,257.347 40.000 C 257.007 43.850,256.586 50.523,256.412 54.830 C 255.982 65.451,255.911 65.551,249.540 64.427 C 247.263 64.026,244.230 63.563,242.800 63.399 C 241.370 63.235,239.750 62.927,239.200 62.714 C 238.650 62.501,237.120 62.171,235.800 61.982 C 231.440 61.356,230.666 57.543,231.987 43.200 C 232.424 38.461,233.088 25.779,233.401 16.200 C 233.679 7.669,235.508 6.311,242.800 9.220 M155.724 8.981 C 156.344 9.602,157.392 13.747,158.004 18.000 C 158.209 19.430,158.580 21.950,158.828 23.600 C 159.707 29.463,159.706 29.381,158.934 30.331 C 158.047 31.422,154.372 32.422,146.058 33.837 C 142.836 34.386,139.269 34.995,138.132 35.191 C 134.223 35.865,132.143 33.903,131.360 28.800 C 131.208 27.810,130.660 25.871,130.142 24.491 C 129.624 23.111,129.200 21.546,129.200 21.014 C 129.200 20.482,129.020 19.936,128.800 19.800 C 127.989 19.298,128.348 16.386,129.329 15.512 C 130.300 14.647,135.172 12.724,138.600 11.853 C 139.700 11.573,141.017 11.119,141.527 10.844 C 142.036 10.569,143.296 10.191,144.327 10.005 C 145.357 9.819,146.920 9.390,147.800 9.051 C 149.910 8.239,154.937 8.195,155.724 8.981 M192.148 33.805 C 193.119 34.776,193.301 37.394,193.123 47.813 C 192.909 60.380,193.620 59.393,184.367 59.961 C 180.719 60.185,177.212 60.567,176.573 60.810 C 175.935 61.053,173.699 61.491,171.606 61.784 C 167.059 62.421,160.100 63.819,157.600 64.599 C 156.610 64.908,155.058 65.350,154.152 65.582 C 150.852 66.425,149.695 68.151,151.046 70.214 C 152.043 71.736,154.555 71.491,163.400 69.008 C 164.500 68.699,166.480 68.246,167.800 68.000 C 169.120 67.754,170.774 67.376,171.476 67.159 C 172.672 66.790,176.604 66.257,185.600 65.244 C 197.464 63.908,220.870 64.220,225.224 65.772 C 225.541 65.885,227.672 66.163,229.959 66.390 C 232.247 66.618,234.767 66.969,235.559 67.170 C 236.352 67.372,238.260 67.746,239.800 68.002 C 241.340 68.257,243.410 68.712,244.400 69.011 C 245.390 69.311,247.275 69.681,248.588 69.835 C 250.480 70.056,251.219 70.357,252.147 71.286 L 253.319 72.457 253.071 76.729 C 252.935 79.078,252.565 81.900,252.250 83.000 C 251.934 84.100,251.552 85.900,251.400 87.000 C 251.249 88.100,250.607 90.980,249.974 93.400 C 249.342 95.820,248.612 98.610,248.354 99.600 C 247.744 101.932,246.132 106.534,245.162 108.711 C 244.743 109.652,244.400 110.653,244.400 110.935 C 244.400 111.218,244.047 111.828,243.616 112.290 C 243.185 112.753,242.711 113.642,242.562 114.266 C 242.413 114.890,242.061 115.850,241.780 116.400 C 240.733 118.447,237.905 124.622,237.300 126.183 C 236.955 127.073,236.540 127.980,236.377 128.200 C 236.010 128.694,234.049 133.408,233.598 134.879 C 232.950 136.995,232.644 136.966,256.746 137.070 L 279.000 137.166 279.880 138.182 L 280.759 139.197 278.799 143.002 C 277.027 146.441,275.222 149.468,273.146 152.484 C 272.736 153.080,272.400 153.749,272.400 153.970 C 272.400 154.191,272.040 154.565,271.600 154.800 C 271.160 155.035,270.800 155.463,270.800 155.750 C 270.800 156.257,270.219 157.113,267.100 161.208 C 266.275 162.290,265.600 163.448,265.600 163.779 C 265.600 164.110,265.150 164.676,264.600 165.037 C 264.050 165.397,263.600 165.917,263.600 166.192 C 263.600 166.467,263.195 167.201,262.700 167.824 C 262.205 168.446,261.260 169.804,260.600 170.842 C 259.940 171.879,258.752 173.689,257.961 174.864 C 257.169 176.039,255.924 177.945,255.193 179.100 C 254.463 180.255,253.735 181.200,253.576 181.200 C 253.417 181.200,253.181 181.605,253.052 182.100 C 252.923 182.595,252.093 183.949,251.209 185.108 C 250.324 186.268,249.597 187.348,249.593 187.508 C 249.585 187.815,247.754 190.604,246.899 191.610 C 246.624 191.935,245.081 194.180,243.470 196.600 C 241.859 199.020,239.111 202.980,237.363 205.400 C 233.450 210.816,231.247 214.004,230.200 215.768 C 229.187 217.474,227.898 219.340,227.553 219.600 C 227.188 219.875,223.850 224.882,222.086 227.800 C 221.288 229.120,220.402 230.438,220.118 230.729 C 219.833 231.019,219.600 231.416,219.600 231.611 C 219.600 231.918,218.203 234.226,217.306 235.400 C 216.915 235.911,214.740 239.190,214.206 240.071 C 213.983 240.440,213.004 241.880,212.031 243.271 C 211.058 244.662,209.280 247.240,208.080 249.000 C 206.881 250.760,205.591 252.560,205.215 253.000 C 204.838 253.440,204.124 254.610,203.627 255.600 C 203.131 256.590,201.977 258.373,201.062 259.562 C 200.148 260.751,198.643 262.810,197.717 264.139 C 196.271 266.214,194.834 267.534,193.964 267.586 C 192.875 267.651,192.800 264.382,192.800 216.630 C 192.800 172.360,192.739 167.648,192.163 167.169 C 191.658 166.750,187.742 166.628,173.263 166.579 C 153.441 166.513,152.668 166.428,152.220 164.271 C 151.819 162.343,151.616 152.004,151.608 133.110 L 151.600 113.221 150.499 112.651 C 149.893 112.338,147.868 111.762,145.999 111.372 C 144.129 110.982,141.970 110.359,141.200 109.988 C 140.430 109.617,139.317 109.198,138.727 109.056 C 135.509 108.283,127.854 101.366,125.165 96.800 C 124.452 95.590,123.590 94.150,123.249 93.600 C 118.218 85.491,114.135 66.821,114.023 51.419 C 113.998 47.950,115.363 45.600,117.402 45.600 C 117.867 45.600,119.677 45.259,121.424 44.842 C 123.171 44.426,126.310 43.701,128.400 43.232 C 133.255 42.142,135.101 41.712,138.800 40.807 C 145.066 39.274,149.062 38.392,150.800 38.157 C 151.790 38.023,153.500 37.673,154.600 37.378 C 155.700 37.084,157.680 36.731,159.000 36.593 C 160.320 36.455,162.570 36.095,164.000 35.793 C 165.430 35.491,169.210 34.946,172.400 34.583 C 175.590 34.220,179.190 33.786,180.400 33.620 C 184.667 33.033,191.483 33.141,192.148 33.805 M185.123 299.711 C 185.859 300.420,187.018 301.855,187.698 302.900 C 188.378 303.945,189.090 304.800,189.280 304.800 C 189.470 304.800,189.740 305.115,189.880 305.500 C 190.020 305.885,190.823 307.033,191.664 308.052 C 192.505 309.070,193.780 310.724,194.497 311.726 C 195.214 312.729,196.835 314.897,198.100 316.545 C 199.365 318.192,200.400 319.725,200.400 319.950 C 200.400 320.176,200.658 320.505,200.973 320.681 C 201.288 320.857,202.534 322.351,203.742 324.001 C 204.950 325.650,206.219 327.360,206.563 327.800 C 206.906 328.240,207.724 329.320,208.380 330.200 C 211.116 333.872,212.160 335.176,214.086 337.335 C 214.903 338.251,215.798 339.450,216.074 340.000 C 216.350 340.550,216.851 341.288,217.188 341.640 C 217.524 341.992,218.340 342.939,219.000 343.743 L 220.200 345.206 220.400 322.417 C 220.581 301.771,220.663 299.565,221.272 298.956 C 221.875 298.353,223.344 298.284,235.576 298.285 L 249.207 298.286 250.003 299.204 C 250.648 299.947,250.800 300.703,250.802 303.161 C 250.803 304.833,250.805 324.277,250.806 346.370 L 250.807 386.541 249.934 387.470 L 249.061 388.400 235.430 388.399 C 220.529 388.397,220.031 388.323,218.766 385.921 C 218.499 385.415,218.163 384.910,218.020 384.800 C 217.876 384.690,217.138 383.708,216.379 382.618 C 214.705 380.211,213.628 378.874,212.700 378.046 C 212.315 377.703,212.000 377.221,212.000 376.974 C 212.000 376.728,211.629 376.093,211.177 375.563 C 210.724 375.034,209.462 373.430,208.373 372.000 C 207.284 370.570,206.147 369.130,205.846 368.800 C 205.546 368.470,204.376 366.940,203.245 365.400 C 200.319 361.413,199.882 360.840,199.127 360.001 C 198.757 359.590,198.217 358.808,197.927 358.263 C 197.637 357.718,196.808 356.581,196.084 355.736 C 193.965 353.262,189.842 347.972,189.314 347.050 C 188.523 345.668,185.590 342.400,185.141 342.400 C 184.896 342.400,184.762 343.261,184.813 344.500 C 185.227 354.559,184.744 387.199,184.171 387.771 C 183.061 388.882,156.888 388.699,155.454 387.571 L 154.400 386.742 154.400 343.407 L 154.400 300.071 155.522 299.127 L 156.644 298.183 170.215 298.303 L 183.785 298.422 185.123 299.711 M80.135 299.975 C 80.476 300.315,80.653 308.102,80.800 329.120 L 81.000 357.800 82.155 360.000 C 83.423 362.418,84.819 364.343,85.327 364.378 C 85.506 364.390,86.243 364.850,86.964 365.400 C 87.686 365.950,88.619 366.401,89.038 366.402 C 89.457 366.404,90.340 366.699,91.000 367.058 C 96.454 370.024,107.751 366.234,110.845 360.400 L 111.800 358.600 112.000 329.714 C 112.178 303.971,112.269 300.759,112.838 300.190 C 113.867 299.162,142.077 299.184,143.215 300.213 C 144.132 301.043,144.449 353.633,143.557 357.000 C 143.324 357.880,142.971 359.860,142.773 361.400 C 142.574 362.940,142.158 364.740,141.847 365.400 C 141.537 366.060,140.699 367.860,139.985 369.400 C 138.573 372.443,137.996 373.295,135.052 376.677 C 129.713 382.809,121.992 387.286,115.161 388.209 C 114.193 388.340,112.410 388.750,111.200 389.121 C 108.058 390.085,88.464 390.073,84.000 389.105 C 82.350 388.747,79.920 388.335,78.600 388.188 C 75.999 387.900,71.006 386.402,69.523 385.466 C 69.015 385.145,68.150 384.755,67.600 384.597 C 67.050 384.440,65.790 383.651,64.800 382.844 C 63.810 382.037,62.533 381.081,61.962 380.720 C 61.392 380.359,60.312 379.385,59.562 378.555 C 58.813 377.725,57.743 376.586,57.185 376.023 C 55.749 374.574,53.013 370.094,52.409 368.200 C 52.128 367.320,51.631 366.089,51.305 365.464 C 50.273 363.487,50.026 356.524,49.991 328.513 C 49.957 300.030,49.972 299.773,51.699 299.528 C 54.363 299.150,79.708 299.548,80.135 299.975 M348.815 300.331 C 349.772 301.107,350.302 315.009,349.498 318.255 C 349.055 320.043,349.895 319.989,322.900 319.995 L 298.400 320.000 298.406 325.700 C 298.409 328.835,298.583 331.670,298.791 332.000 C 299.130 332.536,317.935 332.871,343.824 332.802 C 346.012 332.796,346.103 333.177,346.073 342.232 C 346.058 346.834,346.035 350.702,346.023 350.826 C 345.882 352.229,343.540 352.377,321.346 352.393 C 305.693 352.404,299.317 352.537,298.927 352.861 C 298.497 353.218,298.405 354.830,298.491 360.556 L 298.600 367.800 324.286 368.000 C 348.009 368.185,350.025 368.253,350.668 368.897 C 351.362 369.591,351.627 386.424,350.976 388.475 C 350.495 389.990,348.951 390.041,307.665 389.919 L 267.529 389.800 266.759 388.849 C 265.549 387.354,265.760 301.057,266.976 300.168 C 268.334 299.175,347.583 299.334,348.815 300.331 " stroke="none" fill="#fbfbfa" fill-rule="evenodd"></path><path id="path3" d="M183.400 4.451 C 176.565 5.302,169.606 6.130,167.356 6.360 C 163.491 6.754,163.012 7.729,164.006 13.176 C 164.229 14.399,164.773 17.920,165.215 21.000 C 166.436 29.510,166.003 29.293,180.000 28.424 C 190.110 27.796,190.547 27.726,191.821 26.545 L 192.919 25.528 192.634 19.664 C 191.798 2.453,192.335 3.338,183.400 4.451 M199.366 5.074 C 198.806 5.679,198.472 6.410,198.601 6.748 C 198.728 7.078,198.928 13.029,199.045 19.974 C 199.602 52.871,199.760 57.133,200.455 57.827 C 200.977 58.348,202.486 58.556,207.855 58.846 C 211.565 59.046,216.220 59.365,218.200 59.555 C 224.929 60.199,224.798 60.375,224.806 50.726 C 224.810 46.697,224.986 41.330,225.198 38.800 C 225.410 36.270,225.760 32.040,225.976 29.400 C 226.191 26.760,226.492 20.617,226.644 15.749 L 226.920 6.897 225.865 6.206 C 225.117 5.716,223.437 5.415,220.105 5.176 C 217.517 4.990,212.790 4.647,209.600 4.413 C 200.992 3.784,200.535 3.814,199.366 5.074 M189.361 7.100 C 190.237 11.393,190.816 24.544,190.157 25.203 C 189.523 25.837,174.055 26.862,170.680 26.493 C 168.245 26.228,167.878 25.562,167.209 20.200 C 166.935 18.000,166.461 15.150,166.155 13.868 C 164.735 7.903,164.882 7.772,173.400 7.460 C 177.311 7.317,180.500 6.998,181.600 6.640 C 184.962 5.545,189.094 5.790,189.361 7.100 M211.400 6.423 C 212.280 6.645,215.598 7.003,218.773 7.219 C 221.947 7.435,224.617 7.683,224.704 7.771 C 225.032 8.099,223.951 31.607,223.378 36.600 C 223.050 39.460,222.728 45.352,222.663 49.694 C 222.598 54.036,222.467 57.665,222.373 57.760 C 222.111 58.020,212.478 57.265,210.200 56.806 C 209.100 56.584,206.911 56.447,205.336 56.502 C 201.834 56.622,201.861 56.647,201.539 52.867 C 201.095 47.651,200.260 9.073,200.556 7.492 L 200.836 6.000 205.318 6.010 C 207.783 6.015,210.520 6.201,211.400 6.423 M234.609 8.915 C 233.641 9.772,233.603 10.000,233.401 16.200 C 233.088 25.779,232.424 38.461,231.987 43.200 C 230.666 57.543,231.440 61.356,235.800 61.982 C 237.120 62.171,238.650 62.501,239.200 62.714 C 239.750 62.927,241.370 63.235,242.800 63.399 C 244.230 63.563,247.263 64.026,249.540 64.427 C 255.911 65.551,255.982 65.451,256.412 54.830 C 256.586 50.523,257.007 43.850,257.347 40.000 C 258.937 21.973,259.200 15.165,258.344 14.129 C 257.520 13.131,254.859 12.084,252.400 11.790 C 251.190 11.646,249.660 11.289,249.000 10.997 C 248.340 10.705,247.080 10.347,246.200 10.202 C 245.320 10.057,243.790 9.615,242.800 9.220 C 239.735 7.997,235.812 7.851,234.609 8.915 M147.800 9.051 C 146.920 9.390,145.357 9.819,144.327 10.005 C 143.296 10.191,142.036 10.569,141.527 10.844 C 141.017 11.119,139.700 11.573,138.600 11.853 C 135.172 12.724,130.300 14.647,129.329 15.512 C 128.348 16.386,127.989 19.298,128.800 19.800 C 129.020 19.936,129.200 20.482,129.200 21.014 C 129.200 21.546,129.624 23.111,130.142 24.491 C 130.660 25.871,131.208 27.810,131.360 28.800 C 132.143 33.903,134.223 35.865,138.132 35.191 C 139.269 34.995,142.836 34.386,146.058 33.837 C 154.372 32.422,158.047 31.422,158.934 30.331 C 159.706 29.381,159.707 29.463,158.828 23.600 C 158.580 21.950,158.209 19.430,158.004 18.000 C 157.392 13.747,156.344 9.602,155.724 8.981 C 154.937 8.195,149.910 8.239,147.800 9.051 M154.072 10.700 C 154.400 11.085,154.881 12.390,155.141 13.600 C 155.401 14.810,155.911 17.150,156.276 18.800 C 157.034 22.233,157.382 27.954,156.879 28.710 C 156.331 29.534,151.614 31.055,148.800 31.314 C 147.370 31.446,145.564 31.821,144.786 32.147 C 141.893 33.359,135.787 33.457,135.031 32.304 C 134.216 31.059,131.687 23.685,131.347 21.560 C 131.208 20.692,130.939 19.886,130.747 19.768 C 129.617 19.069,130.706 16.400,132.121 16.400 C 132.540 16.400,133.719 15.968,134.741 15.440 C 136.600 14.480,145.052 11.679,149.200 10.648 C 152.284 9.882,153.385 9.893,154.072 10.700 M242.000 10.918 C 243.430 11.234,245.050 11.686,245.600 11.923 C 246.150 12.159,247.757 12.540,249.172 12.769 C 250.586 12.998,251.865 13.382,252.014 13.623 C 252.163 13.864,253.076 14.161,254.042 14.283 C 257.065 14.665,258.219 17.668,256.789 21.430 C 256.562 22.025,256.197 27.302,255.977 33.156 C 255.527 45.110,255.051 52.523,254.339 58.645 L 253.856 62.800 251.160 62.800 C 249.677 62.800,246.383 62.350,243.839 61.800 C 241.295 61.250,238.591 60.800,237.830 60.800 C 237.068 60.800,235.779 60.407,234.965 59.926 L 233.484 59.052 233.742 48.226 C 233.885 42.272,234.164 36.500,234.364 35.400 C 234.563 34.300,234.939 28.540,235.198 22.600 C 235.815 8.463,235.255 9.426,242.000 10.918 M180.400 33.620 C 179.190 33.786,175.590 34.220,172.400 34.583 C 169.210 34.946,165.430 35.491,164.000 35.793 C 162.570 36.095,160.320 36.455,159.000 36.593 C 157.680 36.731,155.700 37.084,154.600 37.378 C 153.500 37.673,151.790 38.023,150.800 38.157 C 149.062 38.392,145.066 39.274,138.800 40.807 C 135.101 41.712,133.255 42.142,128.400 43.232 C 126.310 43.701,123.171 44.426,121.424 44.842 C 119.677 45.259,117.867 45.600,117.402 45.600 C 115.363 45.600,113.998 47.950,114.023 51.419 C 114.135 66.821,118.218 85.491,123.249 93.600 C 123.590 94.150,124.452 95.590,125.165 96.800 C 127.854 101.366,135.509 108.283,138.727 109.056 C 139.317 109.198,140.430 109.617,141.200 109.988 C 141.970 110.359,144.129 110.982,145.999 111.372 C 147.868 111.762,149.893 112.338,150.499 112.651 L 151.600 113.221 151.608 133.110 C 151.616 152.004,151.819 162.343,152.220 164.271 C 152.668 166.428,153.441 166.513,173.263 166.579 C 187.742 166.628,191.658 166.750,192.163 167.169 C 192.739 167.648,192.800 172.360,192.800 216.630 C 192.800 264.382,192.875 267.651,193.964 267.586 C 194.834 267.534,196.271 266.214,197.717 264.139 C 198.643 262.810,200.148 260.751,201.062 259.562 C 201.977 258.373,203.131 256.590,203.627 255.600 C 204.124 254.610,204.838 253.440,205.215 253.000 C 205.591 252.560,206.881 250.760,208.080 249.000 C 209.280 247.240,211.058 244.662,212.031 243.271 C 213.004 241.880,213.983 240.440,214.206 240.071 C 214.740 239.190,216.915 235.911,217.306 235.400 C 218.203 234.226,219.600 231.918,219.600 231.611 C 219.600 231.416,219.833 231.019,220.118 230.729 C 220.402 230.438,221.288 229.120,222.086 227.800 C 223.850 224.882,227.188 219.875,227.553 219.600 C 227.898 219.340,229.187 217.474,230.200 215.768 C 231.247 214.004,233.450 210.816,237.363 205.400 C 239.111 202.980,241.859 199.020,243.470 196.600 C 245.081 194.180,246.624 191.935,246.899 191.610 C 247.754 190.604,249.585 187.815,249.593 187.508 C 249.597 187.348,250.324 186.268,251.209 185.108 C 252.093 183.949,252.923 182.595,253.052 182.100 C 253.181 181.605,253.417 181.200,253.576 181.200 C 253.735 181.200,254.463 180.255,255.193 179.100 C 255.924 177.945,257.169 176.039,257.961 174.864 C 258.752 173.689,259.940 171.879,260.600 170.842 C 261.260 169.804,262.205 168.446,262.700 167.824 C 263.195 167.201,263.600 166.467,263.600 166.192 C 263.600 165.917,264.050 165.397,264.600 165.037 C 265.150 164.676,265.600 164.110,265.600 163.779 C 265.600 163.448,266.275 162.290,267.100 161.208 C 270.219 157.113,270.800 156.257,270.800 155.750 C 270.800 155.463,271.160 155.035,271.600 154.800 C 272.040 154.565,272.400 154.191,272.400 153.970 C 272.400 153.749,272.736 153.080,273.146 152.484 C 275.222 149.468,277.027 146.441,278.799 143.002 L 280.759 139.197 279.880 138.182 L 279.000 137.166 256.746 137.070 C 232.644 136.966,232.950 136.995,233.598 134.879 C 234.049 133.408,236.010 128.694,236.377 128.200 C 236.540 127.980,236.955 127.073,237.300 126.183 C 237.905 124.622,240.733 118.447,241.780 116.400 C 242.061 115.850,242.413 114.890,242.562 114.266 C 242.711 113.642,243.185 112.753,243.616 112.290 C 244.047 111.828,244.400 111.218,244.400 110.935 C 244.400 110.653,244.743 109.652,245.162 108.711 C 246.132 106.534,247.744 101.932,248.354 99.600 C 248.612 98.610,249.342 95.820,249.974 93.400 C 250.607 90.980,251.249 88.100,251.400 87.000 C 251.552 85.900,251.934 84.100,252.250 83.000 C 252.565 81.900,252.935 79.078,253.071 76.729 L 253.319 72.457 252.147 71.286 C 251.219 70.357,250.480 70.056,248.588 69.835 C 247.275 69.681,245.390 69.311,244.400 69.011 C 243.410 68.712,241.340 68.257,239.800 68.002 C 238.260 67.746,236.352 67.372,235.559 67.170 C 234.767 66.969,232.247 66.618,229.959 66.390 C 227.672 66.163,225.541 65.885,225.224 65.772 C 220.870 64.220,197.464 63.908,185.600 65.244 C 176.604 66.257,172.672 66.790,171.476 67.159 C 170.774 67.376,169.120 67.754,167.800 68.000 C 166.480 68.246,164.500 68.699,163.400 69.008 C 154.555 71.491,152.043 71.736,151.046 70.214 C 149.695 68.151,150.852 66.425,154.152 65.582 C 155.058 65.350,156.610 64.908,157.600 64.599 C 160.100 63.819,167.059 62.421,171.606 61.784 C 173.699 61.491,175.935 61.053,176.573 60.810 C 177.212 60.567,180.719 60.185,184.367 59.961 C 193.620 59.393,192.909 60.380,193.123 47.813 C 193.301 37.394,193.119 34.776,192.148 33.805 C 191.483 33.141,184.667 33.033,180.400 33.620 M190.312 35.537 C 190.634 35.742,190.809 36.666,190.784 38.031 C 190.762 39.224,190.746 43.080,190.748 46.600 C 190.750 50.120,190.718 53.977,190.676 55.172 L 190.600 57.343 183.400 58.268 C 179.440 58.777,175.120 59.297,173.800 59.425 C 172.480 59.552,170.680 59.899,169.800 60.195 C 168.920 60.491,167.120 60.845,165.800 60.982 C 164.480 61.119,162.230 61.570,160.800 61.984 C 159.370 62.398,157.300 62.914,156.200 63.132 C 148.677 64.620,147.057 66.310,148.788 70.865 C 150.120 74.371,151.873 74.440,162.600 71.410 C 163.700 71.100,165.410 70.667,166.400 70.448 C 167.390 70.229,168.920 69.867,169.800 69.643 C 174.009 68.571,181.142 67.535,186.778 67.176 C 190.200 66.959,194.972 66.621,197.383 66.426 C 202.586 66.006,220.148 66.877,224.800 67.787 C 226.450 68.109,229.791 68.550,232.223 68.767 C 234.656 68.984,237.127 69.344,237.715 69.568 C 238.302 69.791,240.001 70.171,241.491 70.412 C 242.981 70.653,245.190 71.186,246.400 71.595 C 247.610 72.005,249.064 72.439,249.631 72.560 C 250.869 72.825,251.779 74.518,251.232 75.540 C 251.028 75.922,250.741 78.027,250.596 80.217 C 250.450 82.408,250.006 85.190,249.609 86.400 C 249.212 87.610,248.757 89.590,248.598 90.800 C 248.438 92.010,248.117 93.360,247.885 93.800 C 247.652 94.240,247.239 95.590,246.967 96.800 C 246.694 98.010,245.632 101.160,244.605 103.800 C 243.579 106.440,242.482 109.397,242.167 110.371 C 241.853 111.345,241.352 112.425,241.054 112.771 C 240.757 113.117,240.320 113.940,240.083 114.600 C 239.154 117.190,237.674 120.486,237.248 120.912 C 237.002 121.158,236.800 121.569,236.800 121.824 C 236.800 122.079,236.361 122.936,235.823 123.727 C 235.286 124.519,234.667 125.759,234.448 126.483 C 233.734 128.840,232.746 131.384,232.366 131.840 C 231.865 132.445,230.810 135.988,230.804 137.086 C 230.796 138.779,231.403 138.824,255.167 138.914 C 267.688 138.961,278.059 139.126,278.213 139.279 C 278.491 139.557,277.248 142.311,275.812 144.600 C 272.978 149.115,271.447 151.339,270.775 151.915 C 270.349 152.279,270.000 152.709,270.000 152.869 C 270.000 153.221,267.567 156.912,267.136 157.214 C 266.968 157.332,266.548 158.105,266.203 158.931 C 265.857 159.758,265.333 160.528,265.038 160.641 C 264.742 160.754,264.163 161.511,263.750 162.323 C 262.853 164.089,260.844 167.191,260.119 167.929 C 259.834 168.219,259.600 168.683,259.600 168.959 C 259.600 169.235,259.165 169.869,258.634 170.368 C 258.102 170.867,257.559 171.709,257.426 172.238 C 257.293 172.767,257.020 173.200,256.818 173.200 C 256.616 173.200,256.047 173.920,255.552 174.800 C 255.057 175.680,254.532 176.400,254.383 176.400 C 254.113 176.400,250.400 182.483,250.400 182.927 C 250.400 183.057,249.995 183.604,249.500 184.142 C 247.880 185.902,245.600 189.115,245.600 189.637 C 245.600 189.918,245.265 190.520,244.856 190.974 C 244.039 191.881,241.198 195.927,237.677 201.200 C 236.428 203.070,235.225 204.799,235.003 205.043 C 234.781 205.287,234.150 206.241,233.600 207.163 C 233.050 208.086,232.042 209.596,231.360 210.520 C 230.678 211.444,229.839 212.740,229.496 213.400 C 229.152 214.060,228.315 215.129,227.636 215.775 C 226.956 216.421,226.400 217.231,226.400 217.575 C 226.399 217.919,225.954 218.717,225.411 219.349 C 224.867 219.981,224.308 220.881,224.167 221.349 C 224.027 221.817,223.237 223.012,222.413 224.003 C 221.589 224.995,220.787 226.210,220.631 226.703 C 220.474 227.197,220.187 227.600,219.993 227.600 C 219.798 227.600,218.965 228.805,218.141 230.278 C 217.318 231.751,216.364 233.247,216.022 233.603 C 215.680 233.959,214.950 235.020,214.400 235.960 C 213.850 236.901,212.817 238.419,212.104 239.335 C 211.391 240.251,210.583 241.450,210.308 242.000 C 210.034 242.550,209.307 243.720,208.694 244.600 C 208.081 245.480,206.739 247.460,205.713 249.000 C 204.687 250.540,203.612 252.038,203.324 252.329 C 203.036 252.619,202.800 253.013,202.800 253.204 C 202.800 253.395,202.263 254.138,201.607 254.857 C 200.951 255.575,200.152 256.714,199.833 257.387 C 199.514 258.059,198.521 259.403,197.626 260.371 C 196.732 261.340,196.000 262.313,196.000 262.533 C 196.000 262.753,195.865 262.798,195.700 262.632 C 195.237 262.167,195.194 258.907,195.014 211.200 L 194.846 166.600 193.870 165.759 C 192.474 164.558,189.586 164.390,170.856 164.419 C 153.437 164.447,154.251 164.532,154.123 162.672 C 154.074 161.972,153.853 159.690,153.632 157.600 C 153.405 155.463,153.259 144.871,153.298 133.400 C 153.381 108.828,153.749 110.430,147.880 109.816 C 146.384 109.660,144.674 109.278,144.080 108.969 C 143.486 108.659,142.730 108.398,142.400 108.390 C 141.182 108.359,135.864 105.401,133.769 103.588 C 132.258 102.280,128.344 97.746,127.392 96.200 C 126.985 95.540,126.346 94.640,125.972 94.200 C 125.598 93.760,125.156 92.950,124.991 92.400 C 124.825 91.850,124.355 90.971,123.945 90.446 C 123.535 89.921,123.200 89.047,123.200 88.504 C 123.200 87.960,122.750 86.981,122.200 86.327 C 121.650 85.673,121.199 84.657,121.198 84.069 C 121.196 83.481,120.931 82.493,120.608 81.874 C 120.285 81.255,119.911 79.815,119.776 78.674 C 119.641 77.533,119.283 75.790,118.979 74.800 C 118.675 73.810,118.238 71.470,118.009 69.600 C 117.780 67.730,117.324 65.316,116.996 64.236 C 116.213 61.658,116.136 49.098,116.900 48.518 C 117.546 48.026,122.875 46.519,125.200 46.170 C 127.644 45.803,135.872 43.696,136.799 43.200 C 137.211 42.980,137.958 42.800,138.461 42.800 C 138.963 42.800,140.820 42.453,142.587 42.028 C 151.543 39.878,154.797 39.200,156.166 39.200 C 156.991 39.200,159.047 38.855,160.733 38.434 C 162.420 38.013,165.780 37.451,168.200 37.185 C 170.620 36.919,173.050 36.525,173.600 36.309 C 174.150 36.093,177.210 35.783,180.400 35.620 C 188.905 35.187,189.749 35.180,190.312 35.537 " stroke="none" fill="#db9071" fill-rule="evenodd"></path><path id="path4" d="M155.522 299.127 L 154.400 300.071 154.400 343.407 L 154.400 386.742 155.454 387.571 C 156.888 388.699,183.061 388.882,184.171 387.771 C 184.744 387.199,185.227 354.559,184.813 344.500 C 184.762 343.261,184.896 342.400,185.141 342.400 C 185.590 342.400,188.523 345.668,189.314 347.050 C 189.842 347.972,193.965 353.262,196.084 355.736 C 196.808 356.581,197.637 357.718,197.927 358.263 C 198.217 358.808,198.757 359.590,199.127 360.001 C 199.882 360.840,200.319 361.413,203.245 365.400 C 204.376 366.940,205.546 368.470,205.846 368.800 C 206.147 369.130,207.284 370.570,208.373 372.000 C 209.462 373.430,210.724 375.034,211.177 375.563 C 211.629 376.093,212.000 376.728,212.000 376.974 C 212.000 377.221,212.315 377.703,212.700 378.046 C 213.628 378.874,214.705 380.211,216.379 382.618 C 217.138 383.708,217.876 384.690,218.020 384.800 C 218.163 384.910,218.499 385.415,218.766 385.921 C 220.031 388.323,220.529 388.397,235.430 388.399 L 249.061 388.400 249.934 387.470 L 250.807 386.541 250.806 346.370 C 250.805 324.277,250.803 304.833,250.802 303.161 C 250.800 300.703,250.648 299.947,250.003 299.204 L 249.207 298.286 235.576 298.285 C 223.344 298.284,221.875 298.353,221.272 298.956 C 220.663 299.565,220.581 301.771,220.400 322.417 L 220.200 345.206 219.000 343.743 C 218.340 342.939,217.524 341.992,217.188 341.640 C 216.851 341.288,216.350 340.550,216.074 340.000 C 215.798 339.450,214.903 338.251,214.086 337.335 C 212.160 335.176,211.116 333.872,208.380 330.200 C 207.724 329.320,206.906 328.240,206.563 327.800 C 206.219 327.360,204.950 325.650,203.742 324.001 C 202.534 322.351,201.288 320.857,200.973 320.681 C 200.658 320.505,200.400 320.176,200.400 319.950 C 200.400 319.725,199.365 318.192,198.100 316.545 C 196.835 314.897,195.214 312.729,194.497 311.726 C 193.780 310.724,192.505 309.070,191.664 308.052 C 190.823 307.033,190.020 305.885,189.880 305.500 C 189.740 305.115,189.470 304.800,189.280 304.800 C 189.090 304.800,188.378 303.945,187.698 302.900 C 187.018 301.855,185.859 300.420,185.123 299.711 L 183.785 298.422 170.215 298.303 L 156.644 298.183 155.522 299.127 M51.699 299.528 C 49.972 299.773,49.957 300.030,49.991 328.513 C 50.026 356.524,50.273 363.487,51.305 365.464 C 51.631 366.089,52.128 367.320,52.409 368.200 C 53.013 370.094,55.749 374.574,57.185 376.023 C 57.743 376.586,58.813 377.725,59.562 378.555 C 60.312 379.385,61.392 380.359,61.962 380.720 C 62.533 381.081,63.810 382.037,64.800 382.844 C 65.790 383.651,67.050 384.440,67.600 384.597 C 68.150 384.755,69.015 385.145,69.523 385.466 C 71.006 386.402,75.999 387.900,78.600 388.188 C 79.920 388.335,82.350 388.747,84.000 389.105 C 88.464 390.073,108.058 390.085,111.200 389.121 C 112.410 388.750,114.193 388.340,115.161 388.209 C 121.992 387.286,129.713 382.809,135.052 376.677 C 137.996 373.295,138.573 372.443,139.985 369.400 C 140.699 367.860,141.537 366.060,141.847 365.400 C 142.158 364.740,142.574 362.940,142.773 361.400 C 142.971 359.860,143.324 357.880,143.557 357.000 C 144.449 353.633,144.132 301.043,143.215 300.213 C 142.077 299.184,113.867 299.162,112.838 300.190 C 112.269 300.759,112.178 303.971,112.000 329.714 L 111.800 358.600 110.845 360.400 C 107.751 366.234,96.454 370.024,91.000 367.058 C 90.340 366.699,89.457 366.404,89.038 366.402 C 88.619 366.401,87.686 365.950,86.964 365.400 C 86.243 364.850,85.506 364.390,85.327 364.378 C 84.819 364.343,83.423 362.418,82.155 360.000 L 81.000 357.800 80.800 329.120 C 80.653 308.102,80.476 300.315,80.135 299.975 C 79.708 299.548,54.363 299.150,51.699 299.528 M184.600 301.367 C 185.260 302.103,187.060 304.364,188.600 306.391 C 190.140 308.418,191.582 310.284,191.805 310.538 C 192.028 310.792,192.498 311.450,192.850 312.000 C 193.496 313.009,197.887 318.460,198.999 319.634 C 199.330 319.982,199.600 320.483,199.600 320.746 C 199.600 321.010,199.877 321.331,200.215 321.461 C 200.553 321.591,201.112 322.243,201.457 322.911 C 201.803 323.579,202.243 324.322,202.437 324.562 C 204.970 327.717,208.800 332.784,208.800 332.981 C 208.800 333.093,210.342 335.123,212.226 337.492 C 216.272 342.578,216.798 343.262,218.393 345.500 C 219.060 346.435,219.852 347.200,220.154 347.200 C 221.768 347.200,221.796 346.810,221.888 323.270 C 221.957 305.405,222.083 300.594,222.488 300.337 C 223.076 299.964,247.609 299.875,248.567 300.243 C 249.337 300.538,249.556 384.987,248.790 386.418 C 248.397 387.153,247.862 387.176,235.150 387.017 C 220.245 386.830,221.582 387.127,218.867 383.407 C 218.061 382.303,217.185 381.130,216.920 380.800 C 216.113 379.797,212.769 375.486,209.600 371.364 C 207.950 369.218,205.970 366.696,205.200 365.761 C 204.430 364.826,203.350 363.412,202.800 362.619 C 202.250 361.827,200.360 359.312,198.600 357.031 C 196.840 354.751,194.050 351.035,192.400 348.774 C 190.750 346.513,189.220 344.469,189.000 344.232 C 188.780 343.994,188.073 343.024,187.429 342.076 C 185.997 339.968,185.224 339.501,184.294 340.180 C 183.649 340.652,183.600 342.299,183.600 363.335 L 183.600 385.982 182.700 386.541 C 181.388 387.357,156.889 387.184,156.364 386.355 C 155.738 385.367,155.905 300.977,156.534 300.455 C 157.027 300.046,179.697 299.561,182.400 299.902 C 182.950 299.971,183.940 300.631,184.600 301.367 M266.976 300.168 C 265.760 301.057,265.549 387.354,266.759 388.849 L 267.529 389.800 307.665 389.919 C 348.951 390.041,350.495 389.990,350.976 388.475 C 351.627 386.424,351.362 369.591,350.668 368.897 C 350.025 368.253,348.009 368.185,324.286 368.000 L 298.600 367.800 298.491 360.556 C 298.405 354.830,298.497 353.218,298.927 352.861 C 299.317 352.537,305.693 352.404,321.346 352.393 C 343.540 352.377,345.882 352.229,346.023 350.826 C 346.035 350.702,346.058 346.834,346.073 342.232 C 346.103 333.177,346.012 332.796,343.824 332.802 C 317.935 332.871,299.130 332.536,298.791 332.000 C 298.583 331.670,298.409 328.835,298.406 325.700 L 298.400 320.000 322.900 319.995 C 349.895 319.989,349.055 320.043,349.498 318.255 C 350.302 315.009,349.772 301.107,348.815 300.331 C 347.583 299.334,268.334 299.175,266.976 300.168 M78.700 301.523 C 79.089 302.013,79.200 308.192,79.200 329.335 C 79.200 359.228,79.168 358.815,81.763 362.600 C 88.646 372.641,108.923 370.761,112.832 359.720 L 113.795 357.000 113.888 329.800 C 113.940 314.840,114.079 302.195,114.198 301.700 L 114.415 300.800 126.908 300.727 C 141.884 300.639,141.271 300.609,141.897 301.465 C 143.581 303.768,142.326 359.075,140.469 364.400 C 136.856 374.759,126.908 384.384,118.348 385.803 C 117.387 385.963,116.240 386.284,115.800 386.517 C 111.749 388.664,83.818 388.446,76.636 386.211 C 75.556 385.875,74.296 385.599,73.836 385.597 C 71.343 385.590,64.018 380.918,59.885 376.700 C 57.905 374.679,57.099 373.656,55.110 370.640 C 54.617 369.893,53.520 367.141,52.464 364.000 L 51.455 361.000 51.313 331.701 C 51.215 311.496,51.303 302.156,51.596 301.607 C 52.321 300.253,77.630 300.174,78.700 301.523 M347.666 301.860 C 348.698 302.794,348.791 317.152,347.771 318.171 C 347.214 318.729,344.398 318.801,322.871 318.806 C 304.123 318.810,298.372 318.927,297.600 319.317 C 295.600 320.328,296.049 333.198,298.103 333.749 C 298.596 333.881,309.025 333.992,321.277 333.995 L 343.555 334.000 344.177 334.889 C 345.220 336.377,345.089 349.817,344.026 350.386 C 343.519 350.657,335.482 350.800,320.703 350.800 C 301.909 350.800,298.024 350.894,297.380 351.365 C 296.661 351.891,296.607 352.490,296.604 360.065 L 296.600 368.200 298.000 368.921 C 299.312 369.597,300.936 369.635,323.886 369.521 C 345.823 369.413,348.437 369.466,349.006 370.035 C 349.722 370.751,350.017 386.943,349.327 387.633 C 348.750 388.210,268.440 388.131,267.743 387.553 C 267.135 387.048,266.929 303.050,267.534 302.135 C 268.235 301.073,270.897 301.004,308.037 301.098 C 343.639 301.187,346.994 301.252,347.666 301.860 " stroke="none" fill="#8996bc" fill-rule="evenodd"></path></g></svg>